# xmcd
#
# Track frame offsets: 
#        150
#        16616
#        32422
#        49221
#        65238
#        79167
#        95424
#        109228
#        126122
#        140292
#        155312
#        168684
#        182945
#        197563
#        212331
#        230315
#        245937
#        261792
#        273084
#        288330
#        300557
#
# Disc length: 4223 seconds
#
# Revision: 0
# Processed by: cddbd v1.5.2PL0 Copyright (c) Steve Scherf et al.
# Submitted via: ExactAudioCopy v0.99pb4
#
DISCID=24107d15
DTITLE=Various Artist - 10 Jaar Schlagerfestival 2015 - CD 2
DYEAR=2015
DGENRE=Chanson
TTITLE0=Christoff - Sweet Caroline
TTITLE1=Willy Sommers - Laat De Zon In Je Hart
TTITLE2=Laura Lynn - Je Hebt Me 1000 Maal Belogen
TTITLE3=Luc Steeno - Hij Speelde Accordeon
TTITLE4=Rex Gildo - Fiesta Mexicana
TTITLE5=Dennie Christian - Besame Mucho
TTITLE6=De Romeo's and Jan Smit - Zingen Lachen Dansen
TTITLE7=Benny Neyman - Vrijgezel
TTITLE8=Marva - Rode Rozen In De Sneeuw
TTITLE9=Johnny White - Verloren Hart, Verloren Droom
TTITLE10=Koos Alberts - Ik Verscheurde Je Foto
TTITLE11=Willeke Alberti - Carolientje
TTITLE12=Lenny Kuhr and Les Poppys - Visite
TTITLE13=Gérard Lenorman - La Ballade Des Gens Heureux
TTITLE14=Sergio - Je Eigen Leven
TTITLE15=Salim Seghers - Verlaat Me Nooit
TTITLE16=Lindsay - Van 's Morgens Vroeg Tot 's Avonds Laat
TTITLE17=Freddy Breck - Bianca
TTITLE18=Costa Cordalis - Anita
TTITLE19=Nicole and Hugo - Goeiemorgen Morgen
TTITLE20=Vader Abraham - Het Kleine Café Aan De Haven
EXTD=
EXTT0=
EXTT1=
EXTT2=
EXTT3=
EXTT4=
EXTT5=
EXTT6=
EXTT7=
EXTT8=
EXTT9=
EXTT10=
EXTT11=
EXTT12=
EXTT13=
EXTT14=
EXTT15=
EXTT16=
EXTT17=
EXTT18=
EXTT19=
EXTT20=
PLAYORDER=
